<svg width="25" height="24" viewBox="0 0 25 24" fill="none" xmlns="http://www.w3.org/2000/svg">
<path fill-rule="evenodd" clip-rule="evenodd" d="M6 3.5V20.5H19V3.5H6ZM5.5 2C4.94772 2 4.5 2.44772 4.5 3V21C4.5 21.5523 4.94772 22 5.5 22H19.5C20.0523 22 20.5 21.5523 20.5 21V3C20.5 2.44772 20.0523 2 19.5 2H5.5Z" fill="#505458"/>
<path fill-rule="evenodd" clip-rule="evenodd" d="M12 21L12 2H13.5L13.5 21H12Z" fill="#505458"/>
<path fill-rule="evenodd" clip-rule="evenodd" d="M11 10C11.2761 10 11.5 10.2239 11.5 10.5V13.5C11.5 13.7761 11.2761 14 11 14C10.7239 14 10.5 13.7761 10.5 13.5V10.5C10.5 10.2239 10.7239 10 11 10Z" fill="#505458"/>
<path fill-rule="evenodd" clip-rule="evenodd" d="M14.5 10C14.7761 10 15 10.2239 15 10.5V13.5C15 13.7761 14.7761 14 14.5 14C14.2239 14 14 13.7761 14 13.5V10.5C14 10.2239 14.2239 10 14.5 10Z" fill="#505458"/>
</svg>
